<svg xmlns="http://www.w3.org/2000/svg" xmlns:xlink="http://www.w3.org/1999/xlink" version="1.1" id="Layer_1" x="0px" y="0px" width="256px" height="256px" viewBox="0 0 256 256" style="enable-background:new 0 0 256 256;" xml:space="preserve"><polygon style="fill:#FFFFFF;" points="22.14,48 37.045,22.183 51.951,48"/><polygon style="fill:#FFFFFF;" points="51.951,186 37.045,211.816 22.14,186"/><polygon style="fill:#FFFFFF;" points="70,233.812 44.184,218.906 70,204.001"/><polygon style="fill:#FFFFFF;" points="208,204.001 233.816,218.906 208,233.812"/><rect x="31" y="47" style="fill:#FFFFFF;" width="12" height="141"/><rect x="68" y="213" style="fill:#FFFFFF;" width="141" height="12"/><text transform="matrix(1 0 0 1 114.9453 103.3579)"><tspan x="0" y="0" style="fill:#FFFFFF; font-family:'Arial-BoldMT'; font-size:16;">DRAG</tspan><tspan x="16.004" y="19.2" style="fill:#FFFFFF; font-family:'Arial-BoldMT'; font-size:16;">to</tspan><tspan x="-11.113" y="38.401" style="fill:#FFFFFF; font-family:'Arial-BoldMT'; font-size:16;">CHANGE</tspan></text><text transform="matrix(1 0 0 1 117.1719 207.1328)" style="fill:#FFFFFF; font-family:'Arial-BoldMT'; font-size:16;">WIND</text><text transform="matrix(-4.371139e-08 -1 1 -4.371139e-08 59.8701 181.0586)" style="fill:#FFFFFF; font-family:'Arial-BoldMT'; font-size:16;">RAIN INTENSITY</text></svg>